name Walk1.mot
datacolumns 19
datarows 12
range 0.80500000 0.81600000
endheader

                time	   L_ground_force_vx	   L_ground_force_vy	   L_ground_force_vz	   L_ground_force_px	   L_ground_force_py	   L_ground_force_pz	   R_ground_force_vx	   R_ground_force_vy	   R_ground_force_vz	   R_ground_force_px	   R_ground_force_py	   R_ground_force_pz	   L_ground_torque_x	   L_ground_torque_y	   L_ground_torque_z	   R_ground_torque_x	   R_ground_torque_y	   R_ground_torque_z	
          0.80500000	          0.00000000	          0.00000000	          0.00000000	          0.00000000	          0.00000000	          0.00000000	          0.00000000	          0.00000000	          0.00000000	          0.00000000	          0.00000000	          0.00000000	          0.00000000	          0.00000000	          0.00000000	          0.00000000	          0.00000000	          0.00000000	
          0.80600000	          0.00000000	          0.00000000	          0.00000000	          0.00000000	          0.00000000	          0.00000000	          0.00000000	          0.00000000	          0.00000000	          0.00000000	          0.00000000	          0.00000000	          0.00000000	          0.00000000	          0.00000000	          0.00000000	          0.00000000	          0.00000000	
          0.80700000	          0.00000000	          0.00000000	          0.00000000	          0.00000000	          0.00000000	          0.00000000	          0.00000000	          0.00000000	          0.00000000	          0.00000000	          0.00000000	          0.00000000	          0.00000000	          0.00000000	          0.00000000	          0.00000000	          0.00000000	          0.00000000	
          0.80800000	          0.00000000	          0.00000000	          0.00000000	          0.00000000	          0.00000000	          0.00000000	          0.00000000	          0.00000000	          0.00000000	          0.00000000	          0.00000000	          0.00000000	          0.00000000	          0.00000000	          0.00000000	          0.00000000	          0.00000000	          0.00000000	
          0.80900000	          0.00000000	          0.00000000	          0.00000000	          0.00000000	          0.00000000	          0.00000000	         -9.10007982	         15.84388172	         -0.22198622	         -0.31293412	          0.00000000	         -0.01552224	          0.00000000	          0.00000000	          0.00000000	          0.00000000	          0.11879039	          0.00000000	
          0.81000000	          0.00000000	          0.00000000	          0.00000000	          0.00000000	          0.00000000	          0.00000000	        -14.36656887	         26.27351351	         -0.07408546	         -0.31527962	          0.00000000	         -0.02069680	          0.00000000	          0.00000000	          0.00000000	          0.00000000	          0.15825771	          0.00000000	
          0.81100000	          0.00000000	          0.00000000	          0.00000000	          0.00000000	          0.00000000	          0.00000000	        -20.43258451	         39.61379031	          0.28486279	         -0.31723244	          0.00000000	         -0.02533508	          0.00000000	          0.00000000	          0.00000000	          0.00000000	          0.18448616	          0.00000000	
          0.81200000	          0.00000000	          0.00000000	          0.00000000	          0.00000000	          0.00000000	          0.00000000	        -26.95968221	         56.05472820	          0.90226378	         -0.31881850	          0.00000000	         -0.02899208	          0.00000000	          0.00000000	          0.00000000	          0.00000000	          0.20100783	          0.00000000	
          0.81300000	          0.00000000	          0.00000000	          0.00000000	          0.00000000	          0.00000000	          0.00000000	        -33.53455202	         75.49142328	          1.76640635	         -0.31999572	          0.00000000	         -0.03120576	          0.00000000	          0.00000000	          0.00000000	          0.00000000	          0.22476488	          0.00000000	
          0.81400000	          0.00000000	          0.00000000	          0.00000000	          0.00000000	          0.00000000	          0.00000000	        -39.60519128	         97.16882033	          2.78965726	         -0.32077930	          0.00000000	         -0.03203328	          0.00000000	          0.00000000	          0.00000000	          0.00000000	          0.27088809	          0.00000000	
          0.81500000	          0.00000000	          0.00000000	          0.00000000	          0.00000000	          0.00000000	          0.00000000	        -44.57638241	        119.73042648	          3.82704533	         -0.32126048	          0.00000000	         -0.03189778	          0.00000000	          0.00000000	          0.00000000	          0.00000000	          0.34158102	          0.00000000	
          0.81600000	          0.00000000	          0.00000000	          0.00000000	          0.00000000	          0.00000000	          0.00000000	        -47.98838918	        141.63687342	          4.71714111	         -0.32155326	          0.00000000	         -0.03125426	          0.00000000	          0.00000000	          0.00000000	          0.00000000	          0.42819937	          0.00000000	
